<svg height='100px' width='100px'  fill="#000000" xmlns="http://www.w3.org/2000/svg" xmlns:xlink="http://www.w3.org/1999/xlink" viewBox="0 0 32 32" version="1.1" x="0px" y="0px"><title>Icons32px / Plus-square </title><desc>Created with Sketch.</desc><g stroke="none" stroke-width="1" fill="none" fill-rule="evenodd"><path d="M9,8 C8.44771525,8 8,8.44771525 8,9 L8,23 C8,23.5522847 8.44771525,24 9,24 L23,24 C23.5522847,24 24,23.5522847 24,23 L24,9 C24,8.44771525 23.5522847,8 23,8 L9,8 Z M9,6 L23,6 C24.6568542,6 26,7.34314575 26,9 L26,23 C26,24.6568542 24.6568542,26 23,26 L9,26 C7.34314575,26 6,24.6568542 6,23 L6,9 C6,7.34314575 7.34314575,6 9,6 Z" fill="#000000"></path><path d="M15,12 C15,11.4477153 15.4477153,11 16,11 C16.5522847,11 17,11.4477153 17,12 L17,20 C17,20.5522847 16.5522847,21 16,21 C15.4477153,21 15,20.5522847 15,20 L15,12 Z" fill="#000000"></path><path d="M12,17 C11.4477153,17 11,16.5522847 11,16 C11,15.4477153 11.4477153,15 12,15 L20,15 C20.5522847,15 21,15.4477153 21,16 C21,16.5522847 20.5522847,17 20,17 L12,17 Z" fill="#000000"></path></g></svg>