<svg height='100px' width='100px'  fill="#ffffff" xmlns="http://www.w3.org/2000/svg" xmlns:xlink="http://www.w3.org/1999/xlink" viewBox="0 0 32 32" version="1.1" x="0px" y="0px"><title>Icons32px / Arrow-down-right </title><desc>Created with Sketch.</desc><g stroke="none" stroke-width="1" fill="none" fill-rule="evenodd"><path d="M9.29289322,10.7071068 C8.90236893,10.3165825 8.90236893,9.68341751 9.29289322,9.29289322 C9.68341751,8.90236893 10.3165825,8.90236893 10.7071068,9.29289322 L22.7071068,21.2928932 C23.0976311,21.6834175 23.0976311,22.3165825 22.7071068,22.7071068 C22.3165825,23.0976311 21.6834175,23.0976311 21.2928932,22.7071068 L9.29289322,10.7071068 Z" fill="#ffffff"></path><path d="M21,21 L21,13 C21,12.4477153 21.4477153,12 22,12 C22.5522847,12 23,12.4477153 23,13 L23,22 C23,22.5522847 22.5522847,23 22,23 L13,23 C12.4477153,23 12,22.5522847 12,22 C12,21.4477153 12.4477153,21 13,21 L21,21 Z" fill="#ffffff"></path></g></svg>