<svg height='100px' width='100px'  fill="#000000" xmlns="http://www.w3.org/2000/svg" xmlns:xlink="http://www.w3.org/1999/xlink" viewBox="0 0 32 32" version="1.1" x="0px" y="0px"><title>Icons32px / Arrow-left </title><desc>Created with Sketch.</desc><g stroke="none" stroke-width="1" fill="none" fill-rule="evenodd"><path d="M24,15 C24.5522847,15 25,15.4477153 25,16 C25,16.5522847 24.5522847,17 24,17 L8,17 C7.44771525,17 7,16.5522847 7,16 C7,15.4477153 7.44771525,15 8,15 L24,15 Z" fill="#000000"></path><path d="M9.41421356,16 L14.7071068,21.2928932 C15.0976311,21.6834175 15.0976311,22.3165825 14.7071068,22.7071068 C14.3165825,23.0976311 13.6834175,23.0976311 13.2928932,22.7071068 L7.29289322,16.7071068 C6.90236893,16.3165825 6.90236893,15.6834175 7.29289322,15.2928932 L13.2928932,9.29289322 C13.6834175,8.90236893 14.3165825,8.90236893 14.7071068,9.29289322 C15.0976311,9.68341751 15.0976311,10.3165825 14.7071068,10.7071068 L9.41421356,16 Z" fill="#000000"></path></g></svg>