<svg height='100px' width='100px'  fill="#000000" xmlns="http://www.w3.org/2000/svg" xmlns:xlink="http://www.w3.org/1999/xlink" viewBox="0 0 32 32" version="1.1" x="0px" y="0px"><title>Icons32px / Bell </title><desc>Created with Sketch.</desc><g stroke="none" stroke-width="1" fill="none" fill-rule="evenodd"><path d="M22,18.0000001 L22,13.0000001 C22,9.68629155 19.3137085,7.0000001 16,7.0000001 C12.6862915,7.0000001 10,9.68629155 10,13.0000001 L10,18.0000001 C10,18.7285743 9.80521143,19.4116533 9.46487122,20.0000001 L22.5351288,20.0000001 C22.1947886,19.4116533 22,18.7285743 22,18.0000001 Z M26,22.0000001 L6,22.0000001 C4.66666667,22.0000001 4.66666667,20.0000001 6,20.0000001 C7.1045695,20.0000001 8,19.1045695 8,18.0000001 L8,13.0000001 C8,8.58172203 11.581722,5.0000001 16,5.0000001 C20.418278,5.0000001 24,8.58172203 24,13.0000001 L24,18.0000001 C24,19.1045695 24.8954305,20.0000001 26,20.0000001 C27.3333333,20.0000001 27.3333333,22.0000001 26,22.0000001 Z M18.595,25.5017719 C18.0583034,26.4269784 17.0696029,26.9964563 16,26.9964563 C14.9303971,26.9964563 13.9416966,26.4269784 13.405,25.5017719 C13.0182792,24.8351073 13.4992895,24 14.27,24 L17.73,24 C18.5007105,24 18.9817208,24.8351073 18.595,25.5017719 Z" fill="#000000"></path></g></svg>