<svg height='100px' width='100px'  fill="#000000" xmlns="http://www.w3.org/2000/svg" xmlns:xlink="http://www.w3.org/1999/xlink" viewBox="0 0 32 32" version="1.1" x="0px" y="0px"><title>Icons32px / Bookmark </title><desc>Created with Sketch.</desc><g stroke="none" stroke-width="1" fill="none" fill-rule="evenodd"><path d="M22,23.0568107 L22,9 C22,8.44771525 21.5522847,8 21,8 L11,8 C10.4477153,8 10,8.44771525 10,9 L10,23.0568107 L15.4187618,19.1862665 C15.7664593,18.9379112 16.2335407,18.9379112 16.5812382,19.1862665 L22,23.0568107 Z M16,21.2289036 L9.58123819,25.8137335 C8.91936972,26.2864967 8,25.8133726 8,25 L8,9 C8,7.34314575 9.34314575,6 11,6 L21,6 C22.6568542,6 24,7.34314575 24,9 L24,25 C24,25.8133726 23.0806303,26.2864967 22.4187618,25.8137335 L16,21.2289036 Z" fill="#000000"></path></g></svg>