<svg height='100px' width='100px'  fill="#ffffff" xmlns="http://www.w3.org/2000/svg" xmlns:xlink="http://www.w3.org/1999/xlink" viewBox="0 0 32 32" version="1.1" x="0px" y="0px"><title>Icons32px / Calendar  </title><desc>Created with Sketch.</desc><g stroke="none" stroke-width="1" fill="none" fill-rule="evenodd"><path d="M9,9 C8.44771525,9 8,9.44771525 8,10 L8,24 C8,24.5522847 8.44771525,25 9,25 L23,25 C23.5522847,25 24,24.5522847 24,24 L24,10 C24,9.44771525 23.5522847,9 23,9 L9,9 Z M9,7 L23,7 C24.6568542,7 26,8.34314575 26,10 L26,24 C26,25.6568542 24.6568542,27 23,27 L9,27 C7.34314575,27 6,25.6568542 6,24 L6,10 C6,8.34314575 7.34314575,7 9,7 Z" fill="#ffffff"></path><path d="M19,6 C19,5.44771525 19.4477153,5 20,5 C20.5522847,5 21,5.44771525 21,6 L21,10 C21,10.5522847 20.5522847,11 20,11 C19.4477153,11 19,10.5522847 19,10 L19,6 Z" fill="#ffffff"></path><path d="M11,6 C11,5.44771525 11.4477153,5 12,5 C12.5522847,5 13,5.44771525 13,6 L13,10 C13,10.5522847 12.5522847,11 12,11 C11.4477153,11 11,10.5522847 11,10 L11,6 Z" fill="#ffffff"></path><path d="M7,15 C6.44771525,15 6,14.5522847 6,14 C6,13.4477153 6.44771525,13 7,13 L25,13 C25.5522847,13 26,13.4477153 26,14 C26,14.5522847 25.5522847,15 25,15 L7,15 Z" fill="#ffffff"></path></g></svg>