<svg fill="#ffffff" xmlns="http://www.w3.org/2000/svg"  viewBox="0 0 48 48" width="48px" height="48px"><path d="M26.5,33.67l-5.81,10.05C11.21,42.15,4,33.92,4,24c0-3.64,0.97-7.05,2.68-9.99L15.34,29l0.01-0.01 C17.08,31.98,20.31,34,24,34C24.86,34,25.7,33.88,26.5,33.67z"/><circle cx="24" cy="24" r="7"/><path d="M14.37,21.33l-5.8-10.05C12.23,6.83,17.78,4,24,4c7.4,0,13.86,4.02,17.31,10H24C19.41,14,15.55,17.11,14.37,21.33z"/><path d="M44,24c0,11.05-8.95,20-20,20l8.66-15l-0.01-0.01C33.5,27.52,34,25.82,34,24c0-2.72-1.1-5.19-2.87-7h11.61 C43.55,19.18,44,21.54,44,24z"/></svg>