<svg height='100px' width='100px'  fill="#000000" xmlns="http://www.w3.org/2000/svg" xmlns:xlink="http://www.w3.org/1999/xlink" viewBox="0 0 32 32" version="1.1" x="0px" y="0px"><title>Icons32px / Delete </title><desc>Created with Sketch.</desc><g stroke="none" stroke-width="1" fill="none" fill-rule="evenodd"><path d="M25,7 C26.6568542,7 28,8.34314575 28,10 L28,22 C28,23.6568542 26.6568542,25 25,25 L12,25 C11.7116374,25 11.4373114,24.8755196 11.2474233,24.6585046 L4.24742331,16.6585046 C3.91752556,16.2814786 3.91752556,15.7185214 4.24742331,15.3414954 L11.2474233,7.34149539 C11.4373114,7.12448043 11.7116374,7 12,7 L25,7 Z M12.4537682,23 L25,23 C25.5522847,23 26,22.5522847 26,22 L26,10 C26,9.44771525 25.5522847,9 25,9 L12.4537682,9 L6.32876823,16 L12.4537682,23 Z" fill="#000000"></path><path d="M21.2928932,12.2928932 C21.6834175,11.9023689 22.3165825,11.9023689 22.7071068,12.2928932 C23.0976311,12.6834175 23.0976311,13.3165825 22.7071068,13.7071068 L16.7071068,19.7071068 C16.3165825,20.0976311 15.6834175,20.0976311 15.2928932,19.7071068 C14.9023689,19.3165825 14.9023689,18.6834175 15.2928932,18.2928932 L21.2928932,12.2928932 Z" fill="#000000"></path><path d="M15.2928932,13.7071068 C14.9023689,13.3165825 14.9023689,12.6834175 15.2928932,12.2928932 C15.6834175,11.9023689 16.3165825,11.9023689 16.7071068,12.2928932 L22.7071068,18.2928932 C23.0976311,18.6834175 23.0976311,19.3165825 22.7071068,19.7071068 C22.3165825,20.0976311 21.6834175,20.0976311 21.2928932,19.7071068 L15.2928932,13.7071068 Z" fill="#000000"></path></g></svg>