<svg height='100px' width='100px'  fill="#000000" xmlns="http://www.w3.org/2000/svg" xmlns:xlink="http://www.w3.org/1999/xlink" viewBox="0 0 20 20" version="1.1" x="0px" y="0px"><title>dots-horizontal</title><desc>Created with Sketch.</desc><g stroke="none" stroke-width="1" fill="none" fill-rule="evenodd"><path d="M4.55555556,8.5 C5.41466517,8.5 6.11111111,9.17157288 6.11111111,10 C6.11111111,10.8284271 5.41466517,11.5 4.55555556,11.5 C3.69644594,11.5 3,10.8284271 3,10 C3,9.17157288 3.69644594,8.5 4.55555556,8.5 Z M10.0555556,8.5 C10.9146652,8.5 11.6111111,9.17157288 11.6111111,10 C11.6111111,10.8284271 10.9146652,11.5 10.0555556,11.5 C9.19644594,11.5 8.5,10.8284271 8.5,10 C8.5,9.17157288 9.19644594,8.5 10.0555556,8.5 Z M15.5555556,8.5 C16.4146652,8.5 17.1111111,9.17157288 17.1111111,10 C17.1111111,10.8284271 16.4146652,11.5 15.5555556,11.5 C14.6964459,11.5 14,10.8284271 14,10 C14,9.17157288 14.6964459,8.5 15.5555556,8.5 Z" fill="#000000" fill-rule="nonzero"></path></g></svg>