<svg height='100px' width='100px'  fill="#ffffff" xmlns="http://www.w3.org/2000/svg" xmlns:xlink="http://www.w3.org/1999/xlink" viewBox="0 0 32 32" version="1.1" x="0px" y="0px"><title>Icons32px / Edit </title><desc>Created with Sketch.</desc><g stroke="none" stroke-width="1" fill="none" fill-rule="evenodd"><path d="M23,18.66 C23,18.1077153 23.4477153,17.66 24,17.66 C24.5522847,17.66 25,18.1077153 25,18.66 L25,24 C25,25.6568542 23.6568542,27 22,27 L8,27 C6.34314575,27 5,25.6568542 5,24 L5,10 C5,8.34314575 6.34314575,7 8,7 L13.34,7 C13.8922847,7 14.34,7.44771525 14.34,8 C14.34,8.55228475 13.8922847,9 13.34,9 L8,9 C7.44771525,9 7,9.44771525 7,10 L7,24 C7,24.5522847 7.44771525,25 8,25 L22,25 C22.5522847,25 23,24.5522847 23,24 L23,18.66 Z" fill="#ffffff"></path><path d="M13,16.4142136 L13,19 L15.5857864,19 L24.5857864,10 L22,7.41421356 L13,16.4142136 Z M22.7071068,5.29289322 L26.7071068,9.29289322 C27.0976311,9.68341751 27.0976311,10.3165825 26.7071068,10.7071068 L16.7071068,20.7071068 C16.5195704,20.8946432 16.2652165,21 16,21 L12,21 C11.4477153,21 11,20.5522847 11,20 L11,16 C11,15.7347835 11.1053568,15.4804296 11.2928932,15.2928932 L21.2928932,5.29289322 C21.6834175,4.90236893 22.3165825,4.90236893 22.7071068,5.29289322 Z" fill="#ffffff"></path></g></svg>