<svg height='100px' width='100px'  fill="#000000" xmlns="http://www.w3.org/2000/svg" xmlns:xlink="http://www.w3.org/1999/xlink" viewBox="0 0 32 32" version="1.1" x="0px" y="0px"><title>Icons32px / Mail </title><desc>Created with Sketch.</desc><g stroke="none" stroke-width="1" fill="none" fill-rule="evenodd"><path d="M8,9 C7.45228475,9 7,9.45228475 7,10 L7,22 C7,22.5477153 7.45228475,23 8,23 L24,23 C24.5477153,23 25,22.5477153 25,22 L25,10 C25,9.45228475 24.5477153,9 24,9 L8,9 Z M8,7 L24,7 C25.6522847,7 27,8.34771525 27,10 L27,22 C27,23.6522847 25.6522847,25 24,25 L8,25 C6.34771525,25 5,23.6522847 5,22 L5,10 C5,8.34771525 6.34771525,7 8,7 Z" fill="#000000"></path><path d="M16,15.7793444 L25.4265377,9.18076808 C25.878987,8.86405357 26.5025174,8.97408836 26.8192319,9.42653766 C27.1359464,9.87898695 27.0259116,10.5025174 26.5734623,10.8192319 L16.5734623,17.8192319 C16.2291422,18.060256 15.7708578,18.060256 15.4265377,17.8192319 L5.42653766,10.8192319 C4.97408836,10.5025174 4.86405357,9.87898695 5.18076808,9.42653766 C5.49748259,8.97408836 6.12101305,8.86405357 6.57346234,9.18076808 L16,15.7793444 Z" fill="#000000"></path></g></svg>