<svg height='100px' width='100px'  fill="#000000" xmlns="http://www.w3.org/2000/svg" xmlns:xlink="http://www.w3.org/1999/xlink" viewBox="0 0 32 32" version="1.1" x="0px" y="0px"><title>Icons32px / File </title><desc>Created with Sketch.</desc><g stroke="none" stroke-width="1" fill="none" fill-rule="evenodd"><path d="M17,5 C17.2652165,5 17.5195704,5.10535684 17.7071068,5.29289322 L24.7071068,12.2928932 C24.8946432,12.4804296 25,12.7347835 25,13 L25,24 C25,25.6568542 23.6568542,27 22,27 L10,27 C8.34314575,27 7,25.6568542 7,24 L7,8 C7,6.34314575 8.34314575,5 10,5 L17,5 Z M16.5857864,7 L10,7 C9.44771525,7 9,7.44771525 9,8 L9,24 C9,24.5522847 9.44771525,25 10,25 L22,25 C22.5522847,25 23,24.5522847 23,24 L23,13.4142136 L16.5857864,7 Z" fill="#000000"></path><path d="M18,12 L24,12 C24.5522847,12 25,12.4477153 25,13 C25,13.5522847 24.5522847,14 24,14 L17,14 C16.4477153,14 16,13.5522847 16,13 L16,6 C16,5.44771525 16.4477153,5 17,5 C17.5522847,5 18,5.44771525 18,6 L18,12 Z" fill="#000000"></path></g></svg>