<svg height='100px' width='100px'  fill="#ffffff" xmlns="http://www.w3.org/2000/svg" xmlns:xlink="http://www.w3.org/1999/xlink" viewBox="0 0 32 32" version="1.1" x="0px" y="0px"><title>Icons32px / Home </title><desc>Created with Sketch.</desc><g stroke="none" stroke-width="1" fill="none" fill-rule="evenodd"><path d="M8,13.4890838 L8,24 C8,24.5522847 8.44771525,25 9,25 L23,25 C23.5522847,25 24,24.5522847 24,24 L24,13.4890838 L16,7.26686158 L8,13.4890838 Z M6.38605939,12.2106478 L15.3860594,5.21064778 C15.7471699,4.92978407 16.2528301,4.92978407 16.6139406,5.21064778 L25.6139406,12.2106478 C25.8575272,12.400104 26,12.6914096 26,13 L26,24 C26,25.6568542 24.6568542,27 23,27 L9,27 C7.34314575,27 6,25.6568542 6,24 L6,13 C6,12.6914096 6.14247284,12.400104 6.38605939,12.2106478 Z" fill="#ffffff"></path><path d="M14,17 L14,26 C14,26.5522847 13.5522847,27 13,27 C12.4477153,27 12,26.5522847 12,26 L12,16 C12,15.4477153 12.4477153,15 13,15 L19,15 C19.5522847,15 20,15.4477153 20,16 L20,26 C20,26.5522847 19.5522847,27 19,27 C18.4477153,27 18,26.5522847 18,26 L18,17 L14,17 Z" fill="#ffffff"></path></g></svg>