<svg height='100px' width='100px'  fill="#ffffff" xmlns="http://www.w3.org/2000/svg" xmlns:xlink="http://www.w3.org/1999/xlink" version="1.1" x="0px" y="0px" viewBox="0 0 100 100" style="enable-background:new 0 0 100 100;" xml:space="preserve"><g><path d="M19.5,42.5V80c0,3.7,3,6.7,6.8,6.7h47.4c3.7,0,6.8-3,6.8-6.7V42.5c0-3.7-3-6.7-6.8-6.7H60v5h13.7c1,0,1.8,0.8,1.8,1.7V80   c0,1-0.8,1.7-1.8,1.7H26.3c-1,0-1.8-0.8-1.8-1.7V42.5c0-1,0.8-1.7,1.8-1.7H38v-5H26.3C22.5,35.8,19.5,38.8,19.5,42.5z"></path><path d="M47,13.2v38.6l-6.4-5.5l-3.3,3.8l10.5,9c0.5,0.4,1,0.6,1.6,0.6s1.2-0.2,1.6-0.6l10.5-9l-3.3-3.8L52,51.8V13.2H47z"></path></g></svg>