<svg height='100px' width='100px'  fill="#000000" xmlns="http://www.w3.org/2000/svg" xmlns:xlink="http://www.w3.org/1999/xlink" viewBox="0 0 32 32" version="1.1" x="0px" y="0px"><title>Icons32px / Lock </title><desc>Created with Sketch.</desc><g stroke="none" stroke-width="1" fill="none" fill-rule="evenodd"><path d="M9,16 C8.44771525,16 8,16.4477153 8,17 L8,24 C8,24.5522847 8.44771525,25 9,25 L23,25 C23.5522847,25 24,24.5522847 24,24 L24,17 C24,16.4477153 23.5522847,16 23,16 L9,16 Z M9,14 L23,14 C24.6568542,14 26,15.3431458 26,17 L26,24 C26,25.6568542 24.6568542,27 23,27 L9,27 C7.34314575,27 6,25.6568542 6,24 L6,17 C6,15.3431458 7.34314575,14 9,14 Z" fill="#000000"></path><path d="M12,15 C12,15.5522847 11.5522847,16 11,16 C10.4477153,16 10,15.5522847 10,15 L10,11 C10,7.6862915 12.6862915,5 16,5 C19.3137085,5 22,7.6862915 22,11 L22,15 C22,15.5522847 21.5522847,16 21,16 C20.4477153,16 20,15.5522847 20,15 L20,11 C20,8.790861 18.209139,7 16,7 C13.790861,7 12,8.790861 12,11 L12,15 Z" fill="#000000"></path></g></svg>