<svg height='100px' width='100px'  fill="#ffffff" xmlns="http://www.w3.org/2000/svg" xmlns:xlink="http://www.w3.org/1999/xlink" viewBox="0 0 32 32" version="1.1" x="0px" y="0px"><title>Icons32px / Align-justify </title><desc>Created with Sketch.</desc><g stroke="none" stroke-width="1" fill="none" fill-rule="evenodd"><path d="M25,13 C25.5522847,13 26,13.4477153 26,14 C26,14.5522847 25.5522847,15 25,15 L7,15 C6.44771525,15 6,14.5522847 6,14 C6,13.4477153 6.44771525,13 7,13 L25,13 Z" fill="#ffffff"></path><path d="M25,9 C25.5522847,9 26,9.44771525 26,10 C26,10.5522847 25.5522847,11 25,11 L7,11 C6.44771525,11 6,10.5522847 6,10 C6,9.44771525 6.44771525,9 7,9 L25,9 Z" fill="#ffffff"></path><path d="M25,17 C25.5522847,17 26,17.4477153 26,18 C26,18.5522847 25.5522847,19 25,19 L7,19 C6.44771525,19 6,18.5522847 6,18 C6,17.4477153 6.44771525,17 7,17 L25,17 Z" fill="#ffffff"></path><path d="M25,21 C25.5522847,21 26,21.4477153 26,22 C26,22.5522847 25.5522847,23 25,23 L7,23 C6.44771525,23 6,22.5522847 6,22 C6,21.4477153 6.44771525,21 7,21 L25,21 Z" fill="#ffffff"></path></g></svg>