<svg height='100px' width='100px'  fill="#000000" xmlns="http://www.w3.org/2000/svg" xmlns:xlink="http://www.w3.org/1999/xlink" viewBox="0 0 32 32" version="1.1" x="0px" y="0px"><title>Icons32px / Minimize </title><desc>Created with Sketch.</desc><g stroke="none" stroke-width="1" fill="none" fill-rule="evenodd"><path d="M11,7 C11,6.44771525 11.4477153,6 12,6 C12.5522847,6 13,6.44771525 13,7 L13,10 C13,11.6568542 11.6568542,13 10,13 L7,13 C6.44771525,13 6,12.5522847 6,12 C6,11.4477153 6.44771525,11 7,11 L10,11 C10.5522847,11 11,10.5522847 11,10 L11,7 Z M25,11 C25.5522847,11 26,11.4477153 26,12 C26,12.5522847 25.5522847,13 25,13 L22,13 C20.3431458,13 19,11.6568542 19,10 L19,7 C19,6.44771525 19.4477153,6 20,6 C20.5522847,6 21,6.44771525 21,7 L21,10 C21,10.5522847 21.4477153,11 22,11 L25,11 Z M21,25 C21,25.5522847 20.5522847,26 20,26 C19.4477153,26 19,25.5522847 19,25 L19,22 C19,20.3431458 20.3431458,19 22,19 L25,19 C25.5522847,19 26,19.4477153 26,20 C26,20.5522847 25.5522847,21 25,21 L22,21 C21.4477153,21 21,21.4477153 21,22 L21,25 Z M7,21 C6.44771525,21 6,20.5522847 6,20 C6,19.4477153 6.44771525,19 7,19 L10,19 C11.6568542,19 13,20.3431458 13,22 L13,25 C13,25.5522847 12.5522847,26 12,26 C11.4477153,26 11,25.5522847 11,25 L11,22 C11,21.4477153 10.5522847,21 10,21 L7,21 Z" fill="#000000"></path></g></svg>