<svg width="18" height="18" viewBox="0 0 18 18" fill="none" xmlns="http://www.w3.org/2000/svg">
<mask id="mask0" mask-type="alpha" maskUnits="userSpaceOnUse" x="0" y="0" width="18" height="18">
<rect width="18" height="18" fill="white"/>
</mask>
<g mask="url(#mask0)">
<path d="M8.53778 1.00169C8.75111 0.983814 8.96444 1.10894 9.05333 1.32344C9.14222 1.52007 9.10667 1.77032 8.94667 1.91332C7.89778 2.96796 7.32889 4.25498 7.32889 5.55987C7.32889 8.4199 9.64 10.7258 12.4667 10.7258C13.7467 10.7258 15.0444 10.1538 16.0756 9.09916C16.2356 8.93828 16.4667 8.90253 16.68 8.99191C16.8756 9.08128 17 9.29578 17 9.51029C16.7333 13.711 13.2133 17 9 17C4.59111 17 1 13.4071 1 8.99191C1 4.77336 4.30667 1.25194 8.53778 1.00169ZM9 15.9454C12.2 15.9454 14.92 13.7646 15.72 10.7973C14.7244 11.4587 13.6044 11.8162 12.4844 11.8162C9.05333 11.8162 6.28 9.00978 6.28 5.57774C6.28 4.43373 6.63556 3.30759 7.29333 2.30658C4.27111 3.05734 2.06667 5.79224 2.06667 9.00978C2.06667 12.8351 5.17778 15.9454 9 15.9454Z" fill="#FF4500" stroke="#FF4500" stroke-width="0.3"/>
</g>
</svg>
