<svg height='100px' width='100px'  fill="#ff4600" xmlns="http://www.w3.org/2000/svg" xmlns:xlink="http://www.w3.org/1999/xlink" viewBox="0 0 32 32" version="1.1" x="0px" y="0px"><title>Icons32px / User-plus </title><desc>Created with Sketch.</desc><g stroke="none" stroke-width="1" fill="none" fill-rule="evenodd"><path d="M21,25 C21,25.5522847 20.5522847,26 20,26 C19.4477153,26 19,25.5522847 19,25 L19,23 C19,21.3431458 17.6568542,20 16,20 L9,20 C7.34314575,20 6,21.3431458 6,23 L6,25 C6,25.5522847 5.55228475,26 5,26 C4.44771525,26 4,25.5522847 4,25 L4,23 C4,20.2385763 6.23857625,18 9,18 L16,18 C18.7614237,18 21,20.2385763 21,23 L21,25 Z" fill="#ff4600"></path><path d="M12.5,16 C9.73857625,16 7.5,13.7614237 7.5,11 C7.5,8.23857625 9.73857625,6 12.5,6 C15.2614237,6 17.5,8.23857625 17.5,11 C17.5,13.7614237 15.2614237,16 12.5,16 Z M12.5,14 C14.1568542,14 15.5,12.6568542 15.5,11 C15.5,9.34314575 14.1568542,8 12.5,8 C10.8431458,8 9.5,9.34314575 9.5,11 C9.5,12.6568542 10.8431458,14 12.5,14 Z" fill="#ff4600"></path><path d="M23,12 C23,11.4477153 23.4477153,11 24,11 C24.5522847,11 25,11.4477153 25,12 L25,18 C25,18.5522847 24.5522847,19 24,19 C23.4477153,19 23,18.5522847 23,18 L23,12 Z" fill="#ff4600"></path><path d="M27,14 C27.5522847,14 28,14.4477153 28,15 C28,15.5522847 27.5522847,16 27,16 L21,16 C20.4477153,16 20,15.5522847 20,15 C20,14.4477153 20.4477153,14 21,14 L27,14 Z" fill="#ff4600"></path></g></svg>