<svg height='100px' width='100px'  fill="#ffffff" xmlns:dc="http://purl.org/dc/elements/1.1/" xmlns:cc="http://creativecommons.org/ns#" xmlns:rdf="http://www.w3.org/1999/02/22-rdf-syntax-ns#" xmlns:svg="http://www.w3.org/2000/svg" xmlns="http://www.w3.org/2000/svg" xmlns:sodipodi="http://sodipodi.sourceforge.net/DTD/sodipodi-0.dtd" xmlns:inkscape="http://www.inkscape.org/namespaces/inkscape" version="1.1" xml:space="preserve" viewBox="0 0 32 32" x="0px" y="0px"><g><path style="color:#000000;font-style:normal;font-variant:normal;font-weight:normal;font-stretch:normal;font-size:medium;line-height:normal;font-family:sans-serif;font-variant-ligatures:normal;font-variant-position:normal;font-variant-caps:normal;font-variant-numeric:normal;font-variant-alternates:normal;font-feature-settings:normal;text-indent:0;text-align:start;text-decoration:none;text-decoration-line:none;text-decoration-style:solid;text-decoration-color:#000000;letter-spacing:normal;word-spacing:normal;text-transform:none;writing-mode:lr-tb;direction:ltr;text-orientation:mixed;dominant-baseline:auto;baseline-shift:baseline;text-anchor:start;white-space:normal;shape-padding:0;clip-rule:nonzero;display:inline;overflow:visible;visibility:visible;opacity:1;isolation:auto;mix-blend-mode:normal;color-interpolation:sRGB;color-interpolation-filters:linearRGB;solid-color:#000000;solid-opacity:1;vector-effect:none;fill:#ffffff;fill-opacity:1;fill-rule:nonzero;stroke:none;stroke-width:1.99999988;stroke-linecap:round;stroke-linejoin:round;stroke-miterlimit:4;stroke-dasharray:none;stroke-dashoffset:0;stroke-opacity:1;paint-order:normal;color-rendering:auto;image-rendering:auto;shape-rendering:auto;text-rendering:auto;enable-background:accumulate" d="m 20.596657,4.3134193 c -0.39055,-0.39047 -1.02366,-0.39047 -1.41421,0 l -5.0188,5.0188 c -1.98911,-1.29379 -4.5988603,-1.058 -6.2949103,0.63805 l -2.82843,2.8284297 c -0.39046,0.39055 -0.39046,1.02366 0,1.41421 l 5.6568603,5.65686 -6.3543003,6.35429 c -0.4043,0.39299 -0.40322,1.04265 -0.003,1.43079 0.40067,0.38795 1.03232,0.37876 1.41697,-0.0166 l 6.3542903,-6.3543 5.65686,5.65686 c 0.39055,0.39046 1.02366,0.39046 1.41421,0 l 2.82843,-2.82843 c 1.69605,-1.69605 1.94407,-4.28699 0.63805,-6.29491 l 5.0188,-5.0188 c 0.39047,-0.39055 0.39047,-1.02366 0,-1.41421 z m -0.7071,2.12132 5.65685,5.6568497 -4.94975,4.94975 c -0.39046,0.39055 -0.39046,1.02367 0,1.41421 1.18745,1.18745 1.18745,3.0552 0,4.24265 l -2.12132,2.12132 -11.3137003,-11.31371 2.12132,-2.12132 c 1.1874403,-1.18745 3.0551903,-1.18745 4.2426403,0 0.39055,0.39046 1.02366,0.39046 1.41421,0 z"></path></g></svg>