<svg height='100px' width='100px'  fill="#000000" xmlns="http://www.w3.org/2000/svg" xmlns:xlink="http://www.w3.org/1999/xlink" viewBox="0 0 32 32" version="1.1" x="0px" y="0px"><title>Icons32px / Refresh-ccw </title><desc>Created with Sketch.</desc><g stroke="none" stroke-width="1" fill="none" fill-rule="evenodd"><path d="M6,13 L11,13 C11.5522847,13 12,13.4477153 12,14 C12,14.5522847 11.5522847,15 11,15 L5,15 C4.44771525,15 4,14.5522847 4,14 L4,8 C4,7.44771525 4.44771525,7 5,7 C5.55228475,7 6,7.44771525 6,8 L6,13 Z" fill="#000000"></path><path d="M26,19 L21,19 C20.4477153,19 20,18.5522847 20,18 C20,17.4477153 20.4477153,17 21,17 L27,17 C27.5522847,17 28,17.4477153 28,18 L28,24 C28,24.5522847 27.5522847,25 27,25 C26.4477153,25 26,24.5522847 26,24 L26,19 Z" fill="#000000"></path><path d="M25.4327161,12.6664038 C25.6169562,13.1870515 25.3442439,13.7584759 24.8235962,13.9427161 C24.3029485,14.1269562 23.7315241,13.8542439 23.5472839,13.3335962 C22.6309447,10.7440955 20.4501576,8.80579023 17.7710291,8.19960358 C15.0919006,7.59341693 12.2891143,8.40412578 10.3247766,10.3687531 L5.68477659,14.7287531 C5.28229738,15.1069447 4.6494386,15.0872558 4.27124694,14.6847766 C3.89305527,14.2822974 3.91274421,13.6494386 4.31522341,13.2712469 L8.93271605,8.93307043 C11.360004,6.50456569 14.8634869,5.49117964 18.2123975,6.24891295 C21.5613081,7.00664626 24.287292,9.42952783 25.4327161,12.6664038 Z M26.3152234,17.2712469 C26.7177026,16.8930553 27.3505614,16.9127442 27.7287531,17.3152234 C28.1069447,17.7177026 28.0872558,18.3505614 27.6847766,18.7287531 L23.0672839,23.0669296 C20.639996,25.4954343 17.1365131,26.5088204 13.7876025,25.7510871 C10.4386919,24.9933537 7.71270799,22.5704722 6.56728395,19.3335962 C6.38304384,18.8129485 6.65575607,18.2415241 7.17640376,18.0572839 C7.69705146,17.8730438 8.26847594,18.1457561 8.45271605,18.6664038 C9.36905528,21.2559045 11.5498424,23.1942098 14.2289709,23.8003964 C16.9080994,24.4065831 19.7108857,23.5958742 21.6752234,21.6312469 L26.3152234,17.2712469 Z" fill="#000000"></path></g></svg>