<svg height='100px' width='100px'  fill="#ffffff" xmlns="http://www.w3.org/2000/svg" xmlns:xlink="http://www.w3.org/1999/xlink" viewBox="0 0 32 32" version="1.1" x="0px" y="0px"><title>Icons32px / Arrow-right </title><desc>Created with Sketch.</desc><g stroke="none" stroke-width="1" fill="none" fill-rule="evenodd"><path d="M8,17 C7.44771525,17 7,16.5522847 7,16 C7,15.4477153 7.44771525,15 8,15 L24,15 C24.5522847,15 25,15.4477153 25,16 C25,16.5522847 24.5522847,17 24,17 L8,17 Z" fill="#ffffff"></path><path d="M17.2928932,10.7071068 C16.9023689,10.3165825 16.9023689,9.68341751 17.2928932,9.29289322 C17.6834175,8.90236893 18.3165825,8.90236893 18.7071068,9.29289322 L24.7071068,15.2928932 C25.0976311,15.6834175 25.0976311,16.3165825 24.7071068,16.7071068 L18.7071068,22.7071068 C18.3165825,23.0976311 17.6834175,23.0976311 17.2928932,22.7071068 C16.9023689,22.3165825 16.9023689,21.6834175 17.2928932,21.2928932 L22.5857864,16 L17.2928932,10.7071068 Z" fill="#ffffff"></path></g></svg>