<svg height='100px' width='100px'  fill="#000000" xmlns="http://www.w3.org/2000/svg" xmlns:xlink="http://www.w3.org/1999/xlink" viewBox="0 0 32 32" version="1.1" x="0px" y="0px"><title>Icons32px / Rotate-cw </title><desc>Created with Sketch.</desc><g stroke="none" stroke-width="1" fill="none" fill-rule="evenodd"><path d="M25,12 L25,7 C25,6.44771525 25.4477153,6 26,6 C26.5522847,6 27,6.44771525 27,7 L27,13 C27,13.5522847 26.5522847,14 26,14 L20,14 C19.4477153,14 19,13.5522847 19,13 C19,12.4477153 19.4477153,12 20,12 L25,12 Z" fill="#000000"></path><path d="M22.5471144,17.6668834 C22.7310896,17.146142 23.3023752,16.8731391 23.8231166,17.0571144 C24.343858,17.2410896 24.6168609,17.8123752 24.4328856,18.3331166 C22.9491321,22.5328771 18.8665691,25.2450116 14.4200147,24.9848824 C9.97346036,24.7247532 6.23499091,21.5550782 5.25106563,17.2109552 C4.26714035,12.8668323 6.2749863,8.39564133 10.1754973,6.24493748 C14.0760083,4.09423364 18.9287605,4.78255745 22.0555609,7.91198468 L26.6855609,12.2719847 C27.0876326,12.6506095 27.1066401,13.2834891 26.7280153,13.6855609 C26.3493905,14.0876326 25.7165109,14.1066401 25.3144391,13.7280153 L20.6626699,9.34688341 C18.1438143,6.82643609 14.2616125,6.27577704 11.1412037,7.99634012 C8.02079488,9.71690319 6.41451812,13.2938559 7.20165835,16.7691543 C7.98879857,20.2444527 10.9795741,22.7801927 14.5368176,22.9882961 C18.0940612,23.1963994 21.3601115,21.0266918 22.5471144,17.6668834 Z" fill="#000000"></path></g></svg>