<svg height='100px' width='100px'  fill="#ff4600" xmlns="http://www.w3.org/2000/svg" xmlns:xlink="http://www.w3.org/1999/xlink" viewBox="0 0 32 32" version="1.1" x="0px" y="0px"><title>Icons32px / Save </title><desc>Created with Sketch.</desc><g stroke="none" stroke-width="1" fill="none" fill-rule="evenodd"><path d="M19.5857864,8 L9,8 C8.44771525,8 8,8.44771525 8,9 L8,23 C8,23.5522847 8.44771525,24 9,24 L23,24 C23.5522847,24 24,23.5522847 24,23 L24,12.4142136 L19.5857864,8 Z M23,26 L9,26 C7.34314575,26 6,24.6568542 6,23 L6,9 C6,7.34314575 7.34314575,6 9,6 L20,6 C20.2652165,6 20.5195704,6.10535684 20.7071068,6.29289322 L25.7071068,11.2928932 C25.8946432,11.4804296 26,11.7347835 26,12 L26,23 C26,24.6568542 24.6568542,26 23,26 Z" fill="#ff4600"></path><path d="M12,18 L12,25 C12,25.5522847 11.5522847,26 11,26 C10.4477153,26 10,25.5522847 10,25 L10,17 C10,16.4477153 10.4477153,16 11,16 L21,16 C21.5522847,16 22,16.4477153 22,17 L22,25 C22,25.5522847 21.5522847,26 21,26 C20.4477153,26 20,25.5522847 20,25 L20,18 L12,18 Z" fill="#ff4600"></path><path d="M12,11 L19,11 C19.5522847,11 20,11.4477153 20,12 C20,12.5522847 19.5522847,13 19,13 L11,13 C10.4477153,13 10,12.5522847 10,12 L10,7 C10,6.44771525 10.4477153,6 11,6 C11.5522847,6 12,6.44771525 12,7 L12,11 Z" fill="#ff4600"></path></g></svg>