<svg height='100px' width='100px'  fill="#ff4600" xmlns="http://www.w3.org/2000/svg" xmlns:xlink="http://www.w3.org/1999/xlink" viewBox="0 0 32 32" version="1.1" x="0px" y="0px"><title>Icons32px / Search </title><desc>Created with Sketch.</desc><g stroke="none" stroke-width="1" fill="none" fill-rule="evenodd"><path d="M14.5,23 C9.80557963,23 6,19.1944204 6,14.5 C6,9.80557963 9.80557963,6 14.5,6 C19.1944204,6 23,9.80557963 23,14.5 C23,19.1944204 19.1944204,23 14.5,23 Z M14.5,21 C18.0898509,21 21,18.0898509 21,14.5 C21,10.9101491 18.0898509,8 14.5,8 C10.9101491,8 8,10.9101491 8,14.5 C8,18.0898509 10.9101491,21 14.5,21 Z" fill="#ff4600"></path><path d="M25.7071068,24.2928932 C26.0976311,24.6834175 26.0976311,25.3165825 25.7071068,25.7071068 C25.3165825,26.0976311 24.6834175,26.0976311 24.2928932,25.7071068 L19.0928932,20.5071068 C18.7023689,20.1165825 18.7023689,19.4834175 19.0928932,19.0928932 C19.4834175,18.7023689 20.1165825,18.7023689 20.5071068,19.0928932 L25.7071068,24.2928932 Z" fill="#ff4600"></path></g></svg>