<svg height='100px' width='100px'  fill="#000000" xmlns="http://www.w3.org/2000/svg" xmlns:xlink="http://www.w3.org/1999/xlink" viewBox="0 0 32 32" version="1.1" x="0px" y="0px"><title>Icons32px / Settings </title><desc>Created with Sketch.</desc><g stroke="none" stroke-width="1" fill="none" fill-rule="evenodd"><path d="M16,20 C13.790861,20 12,18.209139 12,16 C12,13.790861 13.790861,12 16,12 C18.209139,12 20,13.790861 20,16 C20,18.209139 18.209139,20 16,20 Z M16,18 C17.1045695,18 18,17.1045695 18,16 C18,14.8954305 17.1045695,14 16,14 C14.8954305,14 14,14.8954305 14,16 C14,17.1045695 14.8954305,18 16,18 Z" fill="#000000"></path><path d="M24.91,17 L25,17 C25.5522847,17 26,16.5522847 26,16 C26,15.4477153 25.5522847,15 25,15 L24.8260117,15 C23.7697973,14.9957795 22.8169395,14.3647479 22.4008602,13.3939314 C22.3646445,13.3094313 22.3403365,13.2205353 22.3284579,13.1297859 C21.997162,12.1847178 22.2270428,11.1246298 22.9428932,10.3928932 L23.0032867,10.3325 C23.1910637,10.1449317 23.2965733,9.89040925 23.2965733,9.625 C23.2965733,9.35959075 23.1910637,9.10506826 23.0025,8.91671334 C22.8149317,8.7289363 22.5604092,8.62342669 22.295,8.62342669 C22.0295908,8.62342669 21.7750683,8.7289363 21.5871068,8.91710678 L21.519265,8.98486258 C20.7448438,9.74238657 19.5873187,9.9522675 18.6060686,9.51913983 C17.6352521,9.10306046 17.0042205,8.1502027 17,7.09 L17,7 C17,6.44771525 16.5522847,6 16,6 C15.4477153,6 15,6.44771525 15,7 L15,7.17398831 C14.9957795,8.2302027 14.3647479,9.18306046 13.3939314,9.59913983 C13.3094313,9.63535548 13.2205353,9.65966354 13.1297859,9.67154209 C12.1847178,10.002838 11.1246298,9.77295717 10.3928932,9.05710678 L10.3325,8.99671334 C10.1449317,8.8089363 9.89040925,8.70342669 9.625,8.70342669 C9.35959075,8.70342669 9.10506826,8.8089363 8.91671334,8.9975 C8.7289363,9.18506826 8.62342669,9.43959075 8.62342669,9.705 C8.62342669,9.97040925 8.7289363,10.2249317 8.91710678,10.4128932 L8.98486258,10.480735 C9.74238657,11.2551562 9.9522675,12.4126813 9.5385361,13.3451811 C9.16293446,14.3664297 8.2012163,15.0542811 7.09,15.08 L7,15.08 C6.44771525,15.08 6,15.5277153 6,16.08 C6,16.6322847 6.44771525,17.08 7,17.08 L7.17398831,17.080008 C8.2302027,17.0842205 9.18306046,17.7152521 9.59486258,18.6762347 C10.0322675,19.6673187 9.82238657,20.8248438 9.05710678,21.6071068 L8.99671334,21.6675 C8.8089363,21.8550683 8.70342669,22.1095908 8.70342669,22.375 C8.70342669,22.6404092 8.8089363,22.8949317 8.9975,23.0832867 C9.18506826,23.2710637 9.43959075,23.3765733 9.705,23.3765733 C9.97040925,23.3765733 10.2249317,23.2710637 10.4128932,23.0828932 L10.480735,23.0151374 C11.2551562,22.2576134 12.4126813,22.0477325 13.3451811,22.4614639 C14.3664297,22.8370655 15.0542811,23.7987837 15.08,24.91 L15.08,25 C15.08,25.5522847 15.5277153,26 16.08,26 C16.6322847,26 17.08,25.5522847 17.08,25 L17.080008,24.8260117 C17.0842205,23.7697973 17.7152521,22.8169395 18.6762347,22.4051374 C19.6673187,21.9677325 20.8248438,22.1776134 21.6071068,22.9428932 L21.6675,23.0032867 C21.8550683,23.1910637 22.1095908,23.2965733 22.375,23.2965733 C22.6404092,23.2965733 22.8949317,23.1910637 23.0832867,23.0025 C23.2710637,22.8149317 23.3765733,22.5604092 23.3765733,22.295 C23.3765733,22.0295908 23.2710637,21.7750683 23.0828932,21.5871068 L23.0151374,21.519265 C22.2588636,20.7461219 22.0484268,19.5911384 22.482977,18.6011431 C22.9001657,17.6331176 23.8515919,17.0042134 24.91,17 Z M22.4851374,18.5962347 L22.4808602,18.6060686 C22.4815645,18.6044252 22.4822703,18.6027829 22.4829777,18.6011415 C22.4836954,18.5995065 22.4844155,18.5978703 22.4851374,18.5962347 Z M24.2987985,12.7151747 C24.4176633,12.8904061 24.6163373,12.9991412 24.83,13 L25,13 C26.6568542,13 28,14.3431458 28,16 C28,17.6568542 26.6568542,19 25,19 L24.9139883,19 C24.6549169,19.0010253 24.421197,19.1558067 24.3191398,19.3939314 C24.2075746,19.6468614 24.2590548,19.9307827 24.4371068,20.1128932 L24.4967133,20.1725 C25.0600445,20.7352048 25.3765733,21.4987723 25.3765733,22.295 C25.3765733,23.0912277 25.0600445,23.8547952 24.4975,24.4167133 C23.9347952,24.9800445 23.1712277,25.2965733 22.375,25.2965733 C21.5787723,25.2965733 20.8152048,24.9800445 20.2528932,24.4171068 L20.200735,24.3648626 C20.0107827,24.1790548 19.7268614,24.1275746 19.4739314,24.2391398 C19.2358067,24.341197 19.0810253,24.5749169 19.08,24.83 L19.08,25 C19.08,26.6568542 17.7368542,28 16.08,28 C14.4231458,28 13.08,26.6568542 13.08,25 C13.0740321,24.6665579 12.9053139,24.4306648 12.5962347,24.3148626 C12.3531386,24.2075746 12.0692173,24.2590548 11.8871068,24.4371068 L11.8275,24.4967133 C11.2647952,25.0600445 10.5012277,25.3765733 9.705,25.3765733 C8.90877226,25.3765733 8.14520477,25.0600445 7.58328666,24.4975 C7.01995553,23.9347952 6.70342669,23.1712277 6.70342669,22.375 C6.70342669,21.5787723 7.01995553,20.8152048 7.58289322,20.2528932 L7.63513742,20.200735 C7.82094519,20.0107827 7.87242541,19.7268614 7.76086017,19.4739314 C7.65880297,19.2358067 7.42508314,19.0810253 7.17,19.08 L7,19.08 C5.34314575,19.08 4,17.7368542 4,16.08 C4,14.4231458 5.34314575,13.08 7,13.08 C7.33344206,13.0740321 7.56933519,12.9053139 7.68513742,12.5962347 C7.79242541,12.3531386 7.74094519,12.0692173 7.56289322,11.8871068 L7.50328666,11.8275 C6.93995553,11.2647952 6.62342669,10.5012277 6.62342669,9.705 C6.62342669,8.90877226 6.93995553,8.14520477 7.5025,7.58328666 C8.06520477,7.01995553 8.82877226,6.70342669 9.625,6.70342669 C10.4212277,6.70342669 11.1847952,7.01995553 11.7471068,7.58289322 L11.799265,7.63513742 C11.9892173,7.82094519 12.2731386,7.87242541 12.5162347,7.76513742 C12.5803065,7.73685997 12.6469939,7.71546911 12.7151747,7.70120146 C12.8904061,7.58233675 12.9991412,7.3836627 13,7.17 L13,7 C13,5.34314575 14.3431458,4 16,4 C17.6568542,4 19,5.34314575 19,7 L19,7.08601169 C19.0010253,7.34508314 19.1558067,7.57880297 19.4037653,7.68513742 C19.6468614,7.79242541 19.9307827,7.74094519 20.1128932,7.56289322 L20.1725,7.50328666 C20.7352048,6.93995553 21.4987723,6.62342669 22.295,6.62342669 C23.0912277,6.62342669 23.8547952,6.93995553 24.4167133,7.5025 C24.9800445,8.06520477 25.2965733,8.82877226 25.2965733,9.625 C25.2965733,10.4212277 24.9800445,11.1847952 24.4171068,11.7471068 L24.3648626,11.799265 C24.1790548,11.9892173 24.1275746,12.2731386 24.2348626,12.5162347 C24.26314,12.5803065 24.2845309,12.6469939 24.2987985,12.7151747 Z" fill="#000000"></path></g></svg>