<svg height='100px' width='100px'  fill="#ffffff" xmlns="http://www.w3.org/2000/svg" xmlns:xlink="http://www.w3.org/1999/xlink" viewBox="0 0 32 32" version="1.1" x="0px" y="0px"><title>Icons32px / Sun  </title><desc>Created with Sketch.</desc><g stroke="none" stroke-width="1" fill="none" fill-rule="evenodd"><path d="M16,22 C12.6862915,22 10,19.3137085 10,16 C10,12.6862915 12.6862915,10 16,10 C19.3137085,10 22,12.6862915 22,16 C22,19.3137085 19.3137085,22 16,22 Z M16,20 C18.209139,20 20,18.209139 20,16 C20,13.790861 18.209139,12 16,12 C13.790861,12 12,13.790861 12,16 C12,18.209139 13.790861,20 16,20 Z" fill="#ffffff"></path><path d="M15,5 C15,4.44771525 15.4477153,4 16,4 C16.5522847,4 17,4.44771525 17,5 L17,7 C17,7.55228475 16.5522847,8 16,8 C15.4477153,8 15,7.55228475 15,7 L15,5 Z" fill="#ffffff"></path><path d="M15,25 C15,24.4477153 15.4477153,24 16,24 C16.5522847,24 17,24.4477153 17,25 L17,27 C17,27.5522847 16.5522847,28 16,28 C15.4477153,28 15,27.5522847 15,27 L15,25 Z" fill="#ffffff"></path><path d="M7.51289322,8.92710678 C7.12236893,8.53658249 7.12236893,7.90341751 7.51289322,7.51289322 C7.90341751,7.12236893 8.53658249,7.12236893 8.92710678,7.51289322 L10.3471068,8.93289322 C10.7376311,9.32341751 10.7376311,9.95658249 10.3471068,10.3471068 C9.95658249,10.7376311 9.32341751,10.7376311 8.93289322,10.3471068 L7.51289322,8.92710678 Z" fill="#ffffff"></path><path d="M21.6528932,23.0671068 C21.2623689,22.6765825 21.2623689,22.0434175 21.6528932,21.6528932 C22.0434175,21.2623689 22.6765825,21.2623689 23.0671068,21.6528932 L24.4871068,23.0728932 C24.8776311,23.4634175 24.8776311,24.0965825 24.4871068,24.4871068 C24.0965825,24.8776311 23.4634175,24.8776311 23.0728932,24.4871068 L21.6528932,23.0671068 Z" fill="#ffffff"></path><path d="M5,17 C4.44771525,17 4,16.5522847 4,16 C4,15.4477153 4.44771525,15 5,15 L7,15 C7.55228475,15 8,15.4477153 8,16 C8,16.5522847 7.55228475,17 7,17 L5,17 Z" fill="#ffffff"></path><path d="M25,17 C24.4477153,17 24,16.5522847 24,16 C24,15.4477153 24.4477153,15 25,15 L27,15 C27.5522847,15 28,15.4477153 28,16 C28,16.5522847 27.5522847,17 27,17 L25,17 Z" fill="#ffffff"></path><path d="M8.92710678,24.4871068 C8.53658249,24.8776311 7.90341751,24.8776311 7.51289322,24.4871068 C7.12236893,24.0965825 7.12236893,23.4634175 7.51289322,23.0728932 L8.93289322,21.6528932 C9.32341751,21.2623689 9.95658249,21.2623689 10.3471068,21.6528932 C10.7376311,22.0434175 10.7376311,22.6765825 10.3471068,23.0671068 L8.92710678,24.4871068 Z" fill="#ffffff"></path><path d="M23.0671068,10.3471068 C22.6765825,10.7376311 22.0434175,10.7376311 21.6528932,10.3471068 C21.2623689,9.95658249 21.2623689,9.32341751 21.6528932,8.93289322 L23.0728932,7.51289322 C23.4634175,7.12236893 24.0965825,7.12236893 24.4871068,7.51289322 C24.8776311,7.90341751 24.8776311,8.53658249 24.4871068,8.92710678 L23.0671068,10.3471068 Z" fill="#ffffff"></path></g></svg>