<svg height='100px' width='100px'  fill="#000000" xmlns="http://www.w3.org/2000/svg" xmlns:xlink="http://www.w3.org/1999/xlink" version="1.1" x="0px" y="0px" viewBox="0 0 24 24" style="enable-background:new 0 0 24 24;" xml:space="preserve"><g><g><path d="M4.072,14.5H0.928C0.416,14.5,0,14.084,0,13.572v-3.145C0,9.916,0.416,9.5,0.928,9.5h3.145C4.584,9.5,5,9.916,5,10.428    v3.145C5,14.084,4.584,14.5,4.072,14.5z M1,13.5h3v-3H1V13.5z M4.072,10.5h0.01H4.072z"></path></g><g><path d="M4.072,5H0.928C0.416,5,0,4.584,0,4.072V0.928C0,0.416,0.416,0,0.928,0h3.145C4.584,0,5,0.416,5,0.928v3.145    C5,4.584,4.584,5,4.072,5z M1,4h3V1H1V4z M4.072,1h0.01H4.072z"></path></g><g><path d="M4.072,24H0.928C0.416,24,0,23.584,0,23.072v-3.145C0,19.416,0.416,19,0.928,19h3.145C4.584,19,5,19.416,5,19.928v3.145    C5,23.584,4.584,24,4.072,24z M1,23h3v-3H1V23z M4.072,20h0.01H4.072z"></path></g><g><path d="M23.5,3H7.663c-0.276,0-0.5-0.224-0.5-0.5S7.387,2,7.663,2H23.5C23.776,2,24,2.224,24,2.5S23.776,3,23.5,3z"></path></g><g><path d="M23.5,12.5H7.663c-0.276,0-0.5-0.224-0.5-0.5s0.224-0.5,0.5-0.5H23.5c0.276,0,0.5,0.224,0.5,0.5S23.776,12.5,23.5,12.5z"></path></g><g><path d="M23.5,22H7.663c-0.276,0-0.5-0.224-0.5-0.5s0.224-0.5,0.5-0.5H23.5c0.276,0,0.5,0.224,0.5,0.5S23.776,22,23.5,22z"></path></g></g></svg>