<svg height='100px' width='100px'  fill="#ff4600" xmlns="http://www.w3.org/2000/svg" xmlns:xlink="http://www.w3.org/1999/xlink" viewBox="0 0 32 32" version="1.1" x="0px" y="0px"><title>Icons32px / User  </title><desc>Created with Sketch.</desc><g stroke="none" stroke-width="1" fill="none" fill-rule="evenodd"><path d="M25,25 C25,25.5522847 24.5522847,26 24,26 C23.4477153,26 23,25.5522847 23,25 L23,23 C23,21.3431458 21.6568542,20 20,20 L12,20 C10.3431458,20 9,21.3431458 9,23 L9,25 C9,25.5522847 8.55228475,26 8,26 C7.44771525,26 7,25.5522847 7,25 L7,23 C7,20.2385763 9.23857625,18 12,18 L20,18 C22.7614237,18 25,20.2385763 25,23 L25,25 Z" fill="#ff4600"></path><path d="M16,16 C13.2385763,16 11,13.7614237 11,11 C11,8.23857625 13.2385763,6 16,6 C18.7614237,6 21,8.23857625 21,11 C21,13.7614237 18.7614237,16 16,16 Z M16,14 C17.6568542,14 19,12.6568542 19,11 C19,9.34314575 17.6568542,8 16,8 C14.3431458,8 13,9.34314575 13,11 C13,12.6568542 14.3431458,14 16,14 Z" fill="#ff4600"></path></g></svg>