<svg height='100px' width='100px'  fill="#000000" xmlns="http://www.w3.org/2000/svg" xmlns:xlink="http://www.w3.org/1999/xlink" viewBox="0 0 32 32" version="1.1" x="0px" y="0px"><title>Icons32px / Users </title><desc>Created with Sketch.</desc><g stroke="none" stroke-width="1" fill="none" fill-rule="evenodd"><path d="M22,25 C22,25.5522847 21.5522847,26 21,26 C20.4477153,26 20,25.5522847 20,25 L20,23 C20,21.3431458 18.6568542,20 17,20 L9,20 C7.34314575,20 6,21.3431458 6,23 L6,25 C6,25.5522847 5.55228475,26 5,26 C4.44771525,26 4,25.5522847 4,25 L4,23 C4,20.2385763 6.23857625,18 9,18 L17,18 C19.7614237,18 22,20.2385763 22,23 L22,25 Z" fill="#000000"></path><path d="M13,16 C10.2385763,16 8,13.7614237 8,11 C8,8.23857625 10.2385763,6 13,6 C15.7614237,6 18,8.23857625 18,11 C18,13.7614237 15.7614237,16 13,16 Z M13,14 C14.6568542,14 16,12.6568542 16,11 C16,9.34314575 14.6568542,8 13,8 C11.3431458,8 10,9.34314575 10,11 C10,12.6568542 11.3431458,14 13,14 Z" fill="#000000"></path><path d="M28,25 C28,25.5522847 27.5522847,26 27,26 C26.4477153,26 26,25.5522847 26,25 L26.0000003,23.0007459 C25.9989805,21.6335842 25.0737494,20.440036 23.7500003,20.0982459 C23.2152528,19.9601749 22.8936831,19.4147477 23.0317541,18.8800003 C23.1698251,18.3452528 23.7152523,18.0236831 24.2499997,18.1617541 C26.4562482,18.7314043 27.9983001,20.7206513 28,23 L28,25 Z" fill="#000000"></path><path d="M19.7519608,8.09875 C19.216935,7.96176174 18.8942617,7.41698667 19.03125,6.88196081 C19.1682383,6.34693496 19.7130133,6.02426174 20.2480392,6.16125 C22.4604327,6.72771223 24.0078433,8.72123893 24.0078433,11.005 C24.0078433,13.2887611 22.4604327,15.2822878 20.2480392,15.84875 C19.7130133,15.9857383 19.1682383,15.663065 19.03125,15.1280392 C18.8942617,14.5930133 19.216935,14.0482383 19.7519608,13.91125 C21.0793969,13.5713727 22.0078433,12.3752566 22.0078433,11.005 C22.0078433,9.63474336 21.0793969,8.43862734 19.7519608,8.09875 Z" fill="#000000"></path></g></svg>