<svg height='100px' width='100px'  fill="#000000" xmlns="http://www.w3.org/2000/svg" xmlns:xlink="http://www.w3.org/1999/xlink" viewBox="0 0 32 32" version="1.1" x="0px" y="0px"><title>Icons32px / Video </title><desc>Created with Sketch.</desc><g stroke="none" stroke-width="1" fill="none" fill-rule="evenodd"><path d="M26.4187618,10.1862665 C27.0806303,9.71350333 28,10.1866274 28,11 L28,21 C28,21.8133726 27.0806303,22.2864967 26.4187618,21.8137335 L19.4187618,16.8137335 C18.8604127,16.4149127 18.8604127,15.5850873 19.4187618,15.1862665 L26.4187618,10.1862665 Z M26,12.9431893 L21.7204651,16 L26,19.0568107 L26,12.9431893 Z" fill="#000000"></path><path d="M7,10 C6.44771525,10 6,10.4477153 6,11 L6,21 C6,21.5522847 6.44771525,22 7,22 L18,22 C18.5522847,22 19,21.5522847 19,21 L19,11 C19,10.4477153 18.5522847,10 18,10 L7,10 Z M7,8 L18,8 C19.6568542,8 21,9.34314575 21,11 L21,21 C21,22.6568542 19.6568542,24 18,24 L7,24 C5.34314575,24 4,22.6568542 4,21 L4,11 C4,9.34314575 5.34314575,8 7,8 Z" fill="#000000"></path></g></svg>