<svg width="65" height="64" viewBox="0 0 65 64" fill="none" xmlns="http://www.w3.org/2000/svg">
<path fill-rule="evenodd" clip-rule="evenodd" d="M17.6206 58.0441L5.95681 46.3803C-1.98561 38.4379 -1.98561 25.5618 5.95681 17.6194L17.6194 5.95682C25.5618 -1.98561 38.4391 -1.98561 46.3803 5.95682L58.0441 17.6194C65.9877 25.5618 65.9877 38.4391 58.0441 46.3815L46.3815 58.0441C38.4391 65.9853 25.5618 65.9853 17.6206 58.0441Z" fill="#FF4600"/>
<path d="M21.8134 46H18C18 43.5007 19.9703 42.3249 21.2732 41.5411C22.0676 41.0656 22.6714 40.6801 22.6714 40.3974C22.6714 40.1147 22.0359 39.7549 21.2732 39.2538C20.002 38.4764 18 37.3263 18 34.7949C18 32.2634 19.9703 31.1198 21.2732 30.3359C21.9088 29.944 22.6714 29.5007 22.6714 29.1987C22.6714 28.8967 21.9278 28.447 21.2732 28.0551C19.9893 27.2776 18 26.0955 18 23.5961C18 21.0968 19.9703 19.9211 21.2732 19.1372C21.9088 18.7453 22.6714 18.302 22.6714 18H26.4848C26.4848 20.4993 24.5209 21.6751 23.218 22.4589C22.5825 22.8508 21.8134 23.2942 21.8134 23.5961C21.8134 23.8981 22.557 24.3479 23.218 24.7398C24.4892 25.5172 26.4848 26.6994 26.4848 29.1987C26.4848 31.698 24.5209 32.8738 23.218 33.6576C22.5825 34.0496 21.8134 34.4929 21.8134 34.7949C21.8134 35.0968 22.449 35.4374 23.218 35.9385C24.4892 36.7223 26.4848 37.8981 26.4848 40.3974C26.4848 42.8967 24.5209 44.0789 23.218 44.8564C22.449 45.3318 21.8134 45.7237 21.8134 46Z" fill="white"/>
<path d="M33.697 18H30.303V46H33.697V18Z" fill="white"/>
<path d="M41.3257 46H37.5152C37.5152 43.5007 39.4839 42.3249 40.7859 41.5411C41.5797 41.0656 42.1894 40.6801 42.1894 40.3974C42.1894 40.1147 41.5543 39.7549 40.7859 39.2538C39.5157 38.4764 37.5152 37.3263 37.5152 34.7949C37.5152 32.2634 39.4839 31.1198 40.7859 30.3359C41.421 29.944 42.1894 29.5007 42.1894 29.1987C42.1894 28.8967 41.44 28.447 40.7859 28.0551C39.5157 27.2776 37.5152 26.0955 37.5152 23.5961C37.5152 21.0968 39.4839 19.9211 40.7859 19.1372C41.421 18.7453 42.1894 18.302 42.1894 18H46C46 20.4993 44.0312 21.6751 42.7293 22.4589C42.0942 22.8508 41.3257 23.2942 41.3257 23.5961C41.3257 23.8981 42.0688 24.3479 42.7293 24.7398C43.9995 25.5172 46 26.6994 46 29.1987C46 31.698 44.0312 32.8738 42.7293 33.6576C42.0942 34.0496 41.3257 34.4929 41.3257 34.7949C41.3257 35.0968 41.9608 35.4374 42.7293 35.9385C43.9995 36.7223 46 37.8981 46 40.3974C46 42.8967 44.0312 44.0789 42.7293 44.8564C41.9354 45.3318 41.3257 45.7173 41.3257 46Z" fill="white"/>
</svg>
