<?xml version="1.0" encoding="UTF-8"?>
<svg xmlns="http://www.w3.org/2000/svg" xmlns:xlink="http://www.w3.org/1999/xlink" width="24px" height="24px" viewBox="0 0 24 23" version="1.1">
<g id="surface1">
<path style=" stroke:none;fill-rule:evenodd;fill:rgb(100%,27.45098%,0%);fill-opacity:1;" d="M 6.507812 20.859375 L 2.199219 16.667969 C -0.734375 13.8125 -0.734375 9.1875 2.199219 6.332031 L 6.503906 2.140625 C 9.4375 -0.714844 14.191406 -0.714844 17.125 2.140625 L 21.433594 6.332031 C 24.363281 9.1875 24.363281 13.8125 21.433594 16.667969 L 17.125 20.859375 C 14.191406 23.714844 9.4375 23.714844 6.507812 20.859375 Z M 6.507812 20.859375 "/>
<path style=" stroke:none;fill-rule:nonzero;fill:rgb(100%,100%,100%);fill-opacity:1;" d="M 8.054688 16.53125 L 6.644531 16.53125 C 6.644531 15.632812 7.375 15.210938 7.855469 14.929688 C 8.148438 14.757812 8.371094 14.621094 8.371094 14.519531 C 8.371094 14.417969 8.136719 14.285156 7.855469 14.105469 C 7.386719 13.828125 6.644531 13.414062 6.644531 12.503906 C 6.644531 11.59375 7.375 11.183594 7.855469 10.902344 C 8.089844 10.761719 8.371094 10.601562 8.371094 10.492188 C 8.371094 10.382812 8.097656 10.222656 7.855469 10.082031 C 7.378906 9.804688 6.644531 9.378906 6.644531 8.480469 C 6.644531 7.582031 7.375 7.160156 7.855469 6.878906 C 8.089844 6.738281 8.371094 6.578125 8.371094 6.46875 L 9.777344 6.46875 C 9.777344 7.367188 9.054688 7.789062 8.574219 8.070312 C 8.339844 8.210938 8.054688 8.371094 8.054688 8.480469 C 8.054688 8.589844 8.328125 8.75 8.574219 8.890625 C 9.042969 9.171875 9.777344 9.59375 9.777344 10.492188 C 9.777344 11.390625 9.054688 11.8125 8.574219 12.09375 C 8.339844 12.238281 8.054688 12.394531 8.054688 12.503906 C 8.054688 12.613281 8.289062 12.734375 8.574219 12.914062 C 9.042969 13.195312 9.777344 13.621094 9.777344 14.519531 C 9.777344 15.414062 9.054688 15.839844 8.574219 16.121094 C 8.289062 16.292969 8.054688 16.433594 8.054688 16.53125 Z M 8.054688 16.53125 "/>
<path style=" stroke:none;fill-rule:nonzero;fill:rgb(100%,100%,100%);fill-opacity:1;" d="M 12.441406 6.46875 L 11.1875 6.46875 L 11.1875 16.53125 L 12.441406 16.53125 Z M 12.441406 6.46875 "/>
<path style=" stroke:none;fill-rule:nonzero;fill:rgb(100%,100%,100%);fill-opacity:1;" d="M 15.257812 16.53125 L 13.851562 16.53125 C 13.851562 15.632812 14.578125 15.210938 15.058594 14.929688 C 15.351562 14.757812 15.578125 14.621094 15.578125 14.519531 C 15.578125 14.417969 15.34375 14.285156 15.058594 14.105469 C 14.589844 13.828125 13.851562 13.414062 13.851562 12.503906 C 13.851562 11.59375 14.578125 11.183594 15.058594 10.902344 C 15.292969 10.761719 15.578125 10.601562 15.578125 10.492188 C 15.578125 10.382812 15.300781 10.222656 15.058594 10.082031 C 14.589844 9.804688 13.851562 9.378906 13.851562 8.480469 C 13.851562 7.582031 14.578125 7.160156 15.058594 6.878906 C 15.292969 6.738281 15.578125 6.578125 15.578125 6.46875 L 16.984375 6.46875 C 16.984375 7.367188 16.257812 7.789062 15.777344 8.070312 C 15.542969 8.210938 15.257812 8.371094 15.257812 8.480469 C 15.257812 8.589844 15.53125 8.75 15.777344 8.890625 C 16.246094 9.171875 16.984375 9.59375 16.984375 10.492188 C 16.984375 11.390625 16.257812 11.8125 15.777344 12.09375 C 15.542969 12.238281 15.257812 12.394531 15.257812 12.503906 C 15.257812 12.613281 15.492188 12.734375 15.777344 12.914062 C 16.246094 13.195312 16.984375 13.621094 16.984375 14.519531 C 16.984375 15.414062 16.257812 15.839844 15.777344 16.121094 C 15.484375 16.292969 15.257812 16.429688 15.257812 16.53125 Z M 15.257812 16.53125 "/>
</g>
</svg>
